<svg xmlns="http://www.w3.org/2000/svg" fill="none" viewBox="0 0 394 80"><path fill="#000" d="M262 0h68.5v12.7h-27.2v66.6h-13.6V12.7H262V0ZM149 0v12.7H94v20.4h44.3v12.6H94v21h55v12.6H80.5V0h68.7zm34.3 0h-17.8l63.8 79.4h17.9l-32-39.7 32-39.6h-17.9l-23 28.6-23-28.6zm18.3 56.7-9-11-27.1 33.7h17.8l18.3-22.7z"/><path fill="#000" d="M81 79.3 17 0H0v79.3h13.6V17l50.2 62.3H81Zm252.6-.4c-1 0-1.8-.4-2.5-1s-1.1-1.6-1.1-2.6.3-1.8 1-2.5 1.6-1 2.6-1 1.8.3 2.5 1a3.4 3.4 0 0 1 .6 4.3 3.7 3.7 0 0 1-3 1.8zm23.2-33.5h6v23.3c0 2.1-.4 4-1.3 5.5a9.1 9.1 0 0 1-3.8 3.5c-1.6.8-3.5 1.3-5.7 1.3-2 0-3.7-.4-5.3-1s-2.8-1.8-3.7-3.2c-.9-1.3-1.4-3-1.4-5h6.3c.1.8.3 1.6.7 2.2s1 1.2 1.6 1.5c.7.4 1.5.5 2.4.5 1 0 1.8-.2 2.4-.6a4 4 0 0 0 1.6-1.8c.3-.8.5-1.8.5-3V45.4zm30.9-2.1c1.7 0 3.3.3 4.6 1 1.4.6 2.5 1.5 3.3 2.8s1.2 2.7 1.2 4.4v15.5h-6.1v-2.5c-.4.7-1 1.4-1.7 2-.8.5-1.7.8-2.8.8a7 7 0 0 1-3.4-.8c-1-.5-1.7-1.2-2.3-2.1-.5-.9-.8-2-.8-3.1 0-1.2.3-2.2.8-3.1.6-.9 1.3-1.5 2.4-2 1-.5 2.2-.7 3.4-.7 1 0 2 .2 2.7.5.8.4 1.5.8 2 1.4v-2c0-1.1-.4-2-.9-2.6-.6-.7-1.5-1-2.5-1-1 0-1.7.2-2.4.7-.6.5-1 1.1-1 2h-6.3c0-1.5.5-2.9 1.3-4 .8-1.2 1.9-2.1 3.3-2.8 1.4-.7 3-1 4.7-1zm-.3 15.4c.8 0 1.6-.2 2.2-.7.6-.4 1.1-1 1.4-1.8v-1c-.4-.5-1-1-1.6-1.3-.7-.3-1.4-.5-2-.5-.9 0-1.6.3-2.1.8-.6.5-.8 1.1-.8 1.9 0 .7.3 1.3.8 1.8.5.4 1.2.7 2 .7z"/></svg>
