<svg xmlns="http://www.w3.org/2000/svg" fill="none" viewBox="0 0 283 64"><path fill="black" d="M141 16c-11 0-19 7-19 18s9 18 20 18c7 0 13-3 16-7l-7-5c-2 3-6 4-9 4-5 0-9-3-10-7h28v-3c0-11-8-18-19-18zm-9 15c1-4 4-7 9-7s8 3 9 7h-18zm117-15c-11 0-19 7-19 18s9 18 20 18c7 0 13-3 16-7l-7-5c-2 3-6 4-9 4-5 0-9-3-10-7h28v-3c0-11-8-18-19-18zm-9 15c1-4 4-7 9-7s8 3 9 7h-18zm-39-15c-5 0-9 2-12 5V1h-8v51h8V36c0-5 4-9 9-9 5 0 8 4 8 9v16h8V35c0-11-6-19-13-19zm-56 18c0 11 8 18 19 18s19-7 19-18-8-18-19-18-19 7-19 18zm8 0c0-6 4-10 11-10s11 4 11 10-4 10-11 10-11-4-11-10zM48 1h-8l14 51h8L76 1h-8L56 38 48 1zm33 15c-11 0-19 7-19 18s9 18 20 18c7 0 13-3 16-7l-7-5c-2 3-6 4-9 4-5 0-9-3-10-7h28v-3c0-11-8-18-19-18zm-9 15c1-4 4-7 9-7s8 3 9 7h-18zm95-1c0 11-6 19-13 19-5 0-9-2-12-5v4h-8V1h8v20c3-3 7-5 12-5 7 0 13 8 13 19zm-8 0c0-5-4-10-9-10-6 0-10 4-10 10s4 10 10 10c5 0 9-5 9-10zm58 0c0 11-6 19-13 19-5 0-9-2-12-5v4h-8V1h8v20c3-3 7-5 12-5 7 0 13 8 13 19zm-8 0c0-5-4-10-9-10-6 0-10 4-10 10s4 10 10 10c5 0 9-5 9-10zM18 34H0V16h18v18zm3-19H0V1l21 14zm-3 22H0v14l18-14z"/></svg>
