<svg width="252" height="222" viewBox="0 0 252 222" fill="none" xmlns="http://www.w3.org/2000/svg">
<g filter="url(#filter0_d_44_64)">
<path d="M224.342 91.7463C229.998 76.4713 222.201 59.5029 206.926 53.8465C191.651 48.19 174.683 55.9874 169.026 71.2624C163.37 86.5374 171.167 103.506 186.442 109.162C201.717 114.819 218.685 107.021 224.342 91.7463Z" fill="url(#paint0_linear_44_64)"/>
<path d="M216.832 86.9221C217.026 87.2768 217.542 87.2902 217.742 86.9354C217.742 86.9354 217.742 86.9355 217.742 86.9288C218.934 84.8068 218.178 82.1292 216.056 80.9377C213.934 79.7462 211.249 80.5026 210.065 82.6179C210.065 82.6179 210.065 82.6179 210.065 82.6246C209.864 82.9794 210.145 83.4145 210.546 83.3944C211.778 83.3408 213.037 83.622 214.188 84.2646C215.339 84.9139 216.23 85.8377 216.825 86.9154L216.832 86.9221Z" fill="#1F1F40"/>
<path d="M188.49 71.0107C188.684 71.3655 189.2 71.3789 189.401 71.0241C189.401 71.0241 189.401 71.0241 189.401 71.0174C190.592 68.8954 189.836 66.2179 187.714 65.0263C185.592 63.8348 182.914 64.5912 181.723 66.7065C181.723 66.7065 181.723 66.7065 181.723 66.7132C181.522 67.068 181.803 67.5031 182.205 67.483C183.436 67.4295 184.695 67.7039 185.846 68.3532C186.998 69.0025 187.888 69.933 188.484 71.0107H188.49Z" fill="#1F1F40"/>
<path d="M187.727 76.58C186.281 75.1408 183.831 75.4286 182.827 77.2025L182.807 77.2427C178.556 84.8135 180.725 94.0979 187.64 97.9804C194.561 101.863 203.611 98.8774 207.862 91.3066L207.882 91.2664C208.873 89.4858 207.842 87.2501 205.861 86.7614C202.775 85.9983 199.461 84.6528 196.161 82.7986C192.861 80.9444 189.983 78.8158 187.727 76.58Z" fill="#1F1F40"/>
<path d="M187.647 97.9804C190.117 99.366 192.848 99.8614 195.546 99.6003C195.546 99.6003 194.16 96.7688 189.722 94.2786C184.869 91.3802 182.145 92.0764 182.145 92.0764C183.329 94.5129 185.177 96.5947 187.647 97.9737V97.9804Z" fill="#FF2936"/>
<path d="M222.568 95.2225C222.937 96.6148 222.923 98.0138 222.267 99.3325C221.645 100.598 220.266 101.575 218.873 101.381C217.622 101.207 216.631 100.143 216.249 98.9376C215.64 96.9763 216.377 94.5464 217.166 92.7324C217.816 91.2463 217.97 89.9142 217.756 88.4215C217.702 88.0801 218.124 87.886 218.345 88.1537C219.951 90.1351 221.899 92.6654 222.568 95.2225Z" fill="#61C0EB"/>
</g>
<g filter="url(#filter1_d_44_64)">
<path d="M133.602 103.094C157.579 89.4279 165.938 58.9118 152.272 34.9343C138.606 10.9568 108.09 2.59777 84.1123 16.2638C60.1349 29.9299 51.7758 60.446 65.4419 84.4235C79.1079 108.401 109.624 116.76 133.602 103.094Z" fill="url(#paint1_linear_44_64)"/>
<path d="M131.325 66.519C136.479 72.4649 130.998 90.9987 111.18 93.4427C91.3722 95.8845 86.1594 75.3181 89.0225 70.6979C92.9384 64.3912 103.494 69.4189 110.747 68.3455C117.99 67.2743 126.254 60.6684 131.325 66.519Z" fill="#1F1F40"/>
<path d="M104.04 76.6757C100.127 80.1215 97.481 84.9728 96.5735 90.0883C100.128 92.6819 104.926 94.2097 111.178 93.4328C125.369 91.688 132.209 81.6803 133.051 73.9574C131.237 72.9332 129.306 72.1319 127.293 71.5666C119.325 69.3489 110.247 71.2038 104.04 76.6757Z" fill="#FF2936"/>
<path d="M94.29 24.7587C91.5163 24.405 88.7979 25.8734 86.6339 27.6427C82.0178 31.4218 81.6387 39.3623 81.6387 39.3623C81.6387 39.3623 79.132 35.4771 77.5368 33.8131C75.0165 31.1642 70.9375 30.1181 67.4573 31.2387C63.9771 32.3594 61.2667 35.5774 60.7596 39.1938C60.0223 44.468 63.6154 49.3642 67.5904 52.9105C70.5693 55.5708 80.8752 62.2607 84.4167 64.1008C91.2073 58.2287 99.0255 47.5461 100.605 38.7153C101.114 35.8964 101.298 32.9222 100.352 30.2217C99.4059 27.5212 97.1197 25.1309 94.2725 24.773L94.29 24.7587Z" fill="#FF2936"/>
<path d="M94.2896 24.7586C93.2549 24.6273 92.236 24.7517 91.2426 25.0361C93.3859 26.4635 94.9427 28.8823 95.6627 31.4054C97.7177 38.5526 94.3199 46.6192 88.362 51.0716C82.6693 55.3196 74.4391 56.4252 68.3391 52.7843C66.9754 51.9701 65.764 50.956 64.626 49.853C65.5435 50.9432 66.5509 51.9718 67.5977 52.8983C70.5765 55.5586 80.8824 62.2486 84.4239 64.0886C91.2146 58.2166 99.0328 47.5339 100.612 38.7031C101.121 35.8842 101.306 32.91 100.359 30.2095C99.4132 27.509 97.1269 25.1187 94.2797 24.7608L94.2896 24.7586Z" fill="#BF101F"/>
<path d="M144.741 22.7675C142.232 21.515 139.192 22.0086 136.567 22.969C130.964 25.0207 127.99 32.3912 127.99 32.3912C127.99 32.3912 126.892 27.9007 125.946 25.8013C124.434 22.4708 120.929 20.1459 117.273 20.0623C113.616 19.9787 110.003 22.1241 108.327 25.3801C105.895 30.1215 107.682 35.9297 110.277 40.5826C112.219 44.0759 119.759 53.7788 122.491 56.6808C130.84 53.3724 141.727 45.8479 146.133 38.0223C147.532 35.5224 148.69 32.7761 148.682 29.9174C148.673 27.0488 147.297 24.0505 144.741 22.7675Z" fill="#FF2936"/>
<path d="M144.74 22.7675C143.807 22.3026 142.804 22.0813 141.777 22.0313C143.334 24.0771 144.002 26.8811 143.864 29.5031C143.453 36.9325 137.591 43.4361 130.506 45.6743C123.732 47.822 115.595 46.1498 111.039 40.7022C110.022 39.4893 109.209 38.1269 108.489 36.7128C108.995 38.0504 109.616 39.3418 110.292 40.5585C112.234 44.0518 119.774 53.7547 122.506 56.6567C130.855 53.3483 141.742 45.8238 146.148 37.9981C147.547 35.4983 148.705 32.752 148.697 29.8933C148.688 27.0247 147.312 24.0264 144.756 22.7433L144.74 22.7675Z" fill="#BF101F"/>
</g>
<g filter="url(#filter2_d_44_64)">
<path d="M43.1644 84.9889C50.0611 84.7227 55.4363 78.9161 55.1701 72.0193C54.904 65.1226 49.0973 59.7474 42.2006 60.0136C35.3038 60.2797 29.9286 66.0864 30.1948 72.9831C30.461 79.8799 36.2676 85.2551 43.1644 84.9889Z" fill="url(#paint2_linear_44_64)"/>
<path d="M38.4155 72.0835C38.5097 72.1078 38.5888 72.0044 38.5462 71.9162C38.2148 71.2351 37.3604 70.8763 36.5029 71.1044C35.6485 71.3294 35.0829 72.0622 35.1285 72.8193C35.1346 72.9166 35.2532 72.9683 35.3231 72.9014C35.6971 72.5365 36.1897 72.2507 36.7644 72.1017C37.3391 71.9497 37.9077 71.9557 38.4124 72.0865L38.4155 72.0835Z" fill="#1F1F40"/>
<path d="M49.9542 67.5529C50.4346 69.3742 49.2609 71.2655 47.3332 71.7733C45.4054 72.2811 43.4533 71.2169 42.9699 69.3955C42.4895 67.5712 43.6632 65.6829 45.5909 65.1751C47.5187 64.6674 49.4738 65.7316 49.9542 67.5529Z" fill="white"/>
<path d="M47.8202 68.1154C48.0056 68.8239 47.5526 69.5567 46.8016 69.7543C46.0536 69.952 45.2965 69.5384 45.1079 68.83C44.9225 68.1215 45.3755 67.3887 46.1235 67.1911C46.8715 66.9934 47.6317 67.407 47.8171 68.1154H47.8202Z" fill="#1F1F40"/>
<path d="M37.7977 75.9298C37.2686 75.8295 36.9281 76.4984 37.3173 76.8694C39.1173 78.5782 41.6532 79.3566 44.1313 78.7029C46.6125 78.0491 48.4308 76.1214 49.1544 73.7466C49.3125 73.2328 48.6862 72.8193 48.2757 73.1659C46.9469 74.2909 45.2655 75.1849 43.3377 75.6926C41.41 76.2004 39.5065 76.2521 37.7977 75.9298Z" fill="#1F1F40"/>
<path d="M43.4929 76.2795C42.5655 76.5258 41.6442 76.6596 40.7441 76.7021L41.6837 80.2597L41.8388 80.8465L41.9908 81.4181C42.38 82.8928 43.8942 83.7746 45.3689 83.3854C46.8436 82.9962 47.7254 81.482 47.3362 80.0073L47.1842 79.4357L47.0291 78.8488L46.0896 75.2913C45.2868 75.6987 44.4172 76.0332 43.4898 76.2795H43.4929Z" fill="#FF2936"/>
</g>
<g filter="url(#filter3_d_44_64)">
<path d="M123.117 177.36C139.502 173.94 149.982 158.026 146.527 141.814C143.071 125.602 126.987 115.232 110.602 118.651C94.2179 122.071 83.737 137.985 87.1928 154.197C90.6485 170.409 106.732 180.779 123.117 177.36Z" fill="url(#paint3_linear_44_64)"/>
<path d="M106.363 139.687C104.7 139.325 102.984 140.066 101.586 141.015C98.6 143.039 97.9516 147.765 97.9516 147.765C97.9516 147.765 96.6365 145.307 95.7689 144.232C94.3899 142.515 91.979 141.684 89.8146 142.172C87.6502 142.66 85.842 144.44 85.3488 146.581C84.6274 149.699 86.5452 152.816 88.7644 155.139C90.4265 156.883 96.3077 161.419 98.3534 162.702C102.764 159.539 108.052 153.557 109.468 148.362C109.924 146.699 110.189 144.937 109.76 143.265C109.331 141.603 108.07 140.057 106.372 139.687H106.363Z" fill="#FF2936"/>
<path d="M106.362 139.687C105.741 139.551 105.12 139.569 104.508 139.696C105.723 140.663 106.545 142.19 106.846 143.735C107.714 148.118 105.239 152.771 101.403 155.121C97.7411 157.371 92.7092 157.596 89.2114 155.102C88.4352 154.551 87.7503 153.874 87.1201 153.16C87.6133 153.864 88.1795 154.524 88.7548 155.13C90.4169 156.874 96.2982 161.41 98.3439 162.693C102.755 159.53 108.042 153.548 109.458 148.352C109.915 146.69 110.179 144.928 109.75 143.256C109.321 141.593 108.061 140.048 106.362 139.678V139.687Z" fill="#BF101F"/>
<path d="M120.938 150.566C120.463 149.798 119.495 148.858 117.997 148.19C117.239 147.864 116.299 147.584 115.166 147.639C114.043 147.693 112.7 148.217 111.805 149.328C111.349 149.88 110.993 150.63 110.929 151.488C110.892 152.627 111.367 153.358 111.751 153.919C111.888 154.099 112.034 154.253 112.171 154.407C111.942 154.533 111.705 154.66 111.467 154.813C111.175 155.021 110.865 155.265 110.563 155.636C110.225 156.051 110.116 156.34 109.951 156.702C109.687 157.407 109.595 158.121 109.659 158.807C109.741 160.163 110.627 161.581 111.851 162.124C113.038 162.675 114.052 162.584 114.828 162.512C116.317 162.313 117.541 162.024 118.362 161.545C119.175 161.075 119.422 160.569 119.285 160.398C119.139 160.199 118.691 160.289 117.97 160.298C117.267 160.325 116.162 160.244 114.783 160.136C114.143 160.081 113.522 159.937 113.203 159.684C112.91 159.458 112.773 159.142 112.773 158.627C112.773 158.383 112.846 158.13 112.947 157.913C113.12 157.642 113.029 157.741 113.33 157.524C113.869 157.19 114.837 156.846 115.741 156.63L115.814 156.611C115.814 156.611 117.833 156.431 118.034 155.491C118.244 154.551 116.335 153.539 116.335 153.539C115.604 153.087 114.801 152.437 114.399 151.94C114.299 151.822 114.216 151.705 114.189 151.642C114.152 151.596 114.171 151.596 114.162 151.587C114.162 151.587 114.162 151.587 114.143 151.587C114.143 151.569 114.143 151.56 114.143 151.542C114.143 151.506 114.152 151.47 114.162 151.425C114.18 151.343 114.216 151.253 114.28 151.163C114.39 150.982 114.572 150.801 114.773 150.666C114.974 150.53 115.184 150.44 115.467 150.377C116.006 150.25 116.627 150.295 117.212 150.404C119.668 150.901 120.792 152.193 121.203 151.958C121.394 151.849 121.394 151.316 120.92 150.539L120.938 150.566ZM113.787 151.642H113.778C113.778 151.642 113.796 151.642 113.805 151.642C113.805 151.642 113.805 151.642 113.796 151.642H113.787Z" fill="#1F1F40"/>
<path d="M109.595 136.578C109.239 136.741 108.664 136.208 107.796 135.539C106.937 134.861 105.732 134.048 104.289 133.624C102.855 133.208 101.422 133.262 100.371 133.434C99.3119 133.587 98.5722 133.822 98.3165 133.524C98.079 133.262 98.4443 132.413 99.6498 131.654C100.828 130.904 102.901 130.398 105.056 131.03C107.202 131.663 108.654 133.145 109.285 134.337C109.942 135.548 109.915 136.443 109.586 136.578H109.595Z" fill="#1F1F40"/>
<path d="M126.006 138.657C125.732 138.422 125.97 137.563 126.965 136.605C127.933 135.657 129.76 134.672 132.006 134.699C134.262 134.735 136.088 135.828 136.983 136.895C137.906 137.97 137.997 138.892 137.696 139.072C137.367 139.28 136.728 138.837 135.76 138.376C134.81 137.907 133.458 137.428 131.96 137.401C130.454 137.383 129.065 137.798 128.043 138.196C127.011 138.584 126.298 138.919 126.006 138.657Z" fill="#1F1F40"/>
</g>
<g filter="url(#filter4_d_44_64)">
<path d="M55.9045 187.181C61.078 180.606 59.9421 171.082 53.3672 165.908C46.7924 160.735 37.2685 161.871 32.095 168.446C26.9215 175.021 28.0575 184.544 34.6323 189.718C41.2071 194.891 50.731 193.755 55.9045 187.181Z" fill="url(#paint4_radial_44_64)"/>
<path d="M53.1102 177.674C53.7581 174.774 51.9846 172.2 49.7043 171.693C47.7848 171.266 45.7818 172.163 44.891 173.815C44.7884 171.941 43.3578 170.272 41.4384 169.845C39.1563 169.334 36.4566 170.906 35.8076 173.808C34.8249 178.201 40.4428 184.741 41.9893 185.638C42.017 185.657 42.049 185.674 42.0822 185.687C42.1336 185.709 42.179 185.728 42.2135 185.739C42.2165 185.74 42.2196 185.741 42.2269 185.741C42.2299 185.742 42.2329 185.743 42.239 185.746C42.2778 185.755 42.3264 185.757 42.3806 185.755C42.4159 185.755 42.4494 185.752 42.4859 185.749C44.2653 185.593 52.1324 182.072 53.1133 177.675L53.1102 177.674Z" fill="#FCFCFC"/>
</g>
<g filter="url(#filter5_d_44_64)">
<path d="M61.4215 145.159C72.5064 133.712 72.2194 115.47 60.7805 104.415C49.3416 93.3593 31.0825 93.6766 19.9977 105.124C8.91281 116.571 9.1998 134.812 20.6387 145.868C32.0776 156.923 50.3367 156.606 61.4215 145.159Z" fill="url(#paint5_linear_44_64)"/>
<path d="M64.4509 106.87C63.1021 106.266 61.4659 106.667 59.9747 107.084C53.4085 108.902 46.8452 110.726 40.279 112.545L40.3035 113.927C39.2127 113.862 38.0441 113.917 36.7939 114.225C35.8184 114.458 34.96 114.865 34.1623 115.317L33.6247 114.193C27.4649 115.689 21.3 117.189 15.1432 118.691C13.7486 119.029 12.2314 119.448 11.3983 120.619C10.5651 121.791 11.0857 123.894 12.5139 123.956C12.7711 123.966 13.0397 123.915 13.2805 123.989C13.813 124.154 13.9923 124.8 14.104 125.344C14.9164 129.314 16.7744 133.376 20.3028 135.377C24.3301 137.659 29.7164 136.438 33.0428 133.219C37.9815 128.448 35.9294 119.02 35.9294 119.02C36.5245 118.775 37.1446 118.55 37.8353 118.398C38.6785 118.183 39.5382 118.053 40.3587 117.959C40.3587 117.959 42.7832 126.734 49.8318 128.993C54.4217 130.46 60.2212 128.458 62.9622 124.401C65.3697 120.846 65.2144 116.324 64.0973 112.412C63.9415 111.874 63.8084 111.214 64.2394 110.796C64.4378 110.604 64.7116 110.516 64.9528 110.373C66.2841 109.584 65.7786 107.472 64.4349 106.866L64.4509 106.87Z" fill="#1F1F40"/>
<path d="M14.4798 121.923C14.5484 122.153 14.158 122.48 13.5929 122.557C13.0278 122.635 12.5636 122.436 12.5701 122.195C12.5736 121.949 12.9782 121.749 13.4732 121.68C13.9682 121.61 14.4111 121.693 14.4798 121.923Z" fill="white"/>
<path d="M61.7266 109.42C61.665 109.179 62.0082 108.887 62.4708 108.694C62.9335 108.501 63.3812 108.466 63.5061 108.677C63.6309 108.887 63.3351 109.293 62.8142 109.514C62.2882 109.737 61.7932 109.658 61.7295 109.425L61.7266 109.42Z" fill="white"/>
<path d="M59.5327 111.16C59.1898 111.086 58.8263 111.091 58.4723 111.193L53.6814 112.616C52.4326 116.751 51.2237 120.897 50.0579 125.057C51.2554 125.818 52.6445 126.214 54.2361 126.07C55.1205 125.993 55.9909 125.755 56.819 125.399C57.5927 121.356 58.3665 117.313 59.1453 113.267C59.2787 112.564 59.4072 111.865 59.5327 111.16Z" fill="#3F3F5B"/>
<path d="M23.8511 120.359C22.2821 123.667 20.7888 127.012 19.3735 130.385C21.1851 132.388 23.5692 133.272 25.88 133.23C27.3059 128.455 28.6439 123.657 29.886 118.835L23.8482 120.354L23.8511 120.359Z" fill="#3F3F5B"/>
<path d="M53.4999 137.023C53.7566 137.285 53.5941 137.984 52.867 138.842C52.499 139.263 51.9766 139.722 51.2717 140.079C50.5727 140.446 49.6993 140.679 48.7911 140.716C47.901 140.749 46.9789 140.591 46.2482 140.251C45.5055 139.926 44.9417 139.467 44.565 139.027C43.8027 138.13 43.7182 137.381 44.0059 137.156C44.3048 136.904 44.9238 137.181 45.7298 137.476C46.5528 137.787 47.5043 138.03 48.6889 137.978C49.8694 137.942 50.8635 137.604 51.7224 137.277C52.5713 136.957 53.2314 136.742 53.4999 137.023Z" fill="#1F1F40"/>
</g>
<defs>
<filter id="filter0_d_44_64" x="156.183" y="45.0031" width="95.0029" height="95.0026" filterUnits="userSpaceOnUse" color-interpolation-filters="sRGB">
<feFlood flood-opacity="0" result="BackgroundImageFix"/>
<feColorMatrix in="SourceAlpha" type="matrix" values="0 0 0 0 0 0 0 0 0 0 0 0 0 0 0 0 0 0 127 0" result="hardAlpha"/>
<feOffset dx="7" dy="11"/>
<feGaussianBlur stdDeviation="9"/>
<feColorMatrix type="matrix" values="0 0 0 0 0.129412 0 0 0 0 0.180392 0 0 0 0 0.341176 0 0 0 0.2 0"/>
<feBlend mode="normal" in2="BackgroundImageFix" result="effect1_dropShadow_44_64"/>
<feBlend mode="normal" in="SourceGraphic" in2="effect1_dropShadow_44_64" result="shape"/>
</filter>
<filter id="filter1_d_44_64" x="47.877" y="2.69867" width="135.96" height="135.96" filterUnits="userSpaceOnUse" color-interpolation-filters="sRGB">
<feFlood flood-opacity="0" result="BackgroundImageFix"/>
<feColorMatrix in="SourceAlpha" type="matrix" values="0 0 0 0 0 0 0 0 0 0 0 0 0 0 0 0 0 0 127 0" result="hardAlpha"/>
<feOffset dx="7" dy="11"/>
<feGaussianBlur stdDeviation="9"/>
<feColorMatrix type="matrix" values="0 0 0 0 0.129412 0 0 0 0 0.180392 0 0 0 0 0.341176 0 0 0 0.2 0"/>
<feBlend mode="normal" in2="BackgroundImageFix" result="effect1_dropShadow_44_64"/>
<feBlend mode="normal" in="SourceGraphic" in2="effect1_dropShadow_44_64" result="shape"/>
</filter>
<filter id="filter2_d_44_64" x="19.1855" y="53.0041" width="60.9941" height="60.9943" filterUnits="userSpaceOnUse" color-interpolation-filters="sRGB">
<feFlood flood-opacity="0" result="BackgroundImageFix"/>
<feColorMatrix in="SourceAlpha" type="matrix" values="0 0 0 0 0 0 0 0 0 0 0 0 0 0 0 0 0 0 127 0" result="hardAlpha"/>
<feOffset dx="7" dy="11"/>
<feGaussianBlur stdDeviation="9"/>
<feColorMatrix type="matrix" values="0 0 0 0 0.129412 0 0 0 0 0.180392 0 0 0 0 0.341176 0 0 0 0.2 0"/>
<feBlend mode="normal" in2="BackgroundImageFix" result="effect1_dropShadow_44_64"/>
<feBlend mode="normal" in="SourceGraphic" in2="effect1_dropShadow_44_64" result="shape"/>
</filter>
<filter id="filter3_d_44_64" x="74.1943" y="111" width="97.9912" height="96.0122" filterUnits="userSpaceOnUse" color-interpolation-filters="sRGB">
<feFlood flood-opacity="0" result="BackgroundImageFix"/>
<feColorMatrix in="SourceAlpha" type="matrix" values="0 0 0 0 0 0 0 0 0 0 0 0 0 0 0 0 0 0 127 0" result="hardAlpha"/>
<feOffset dx="7" dy="11"/>
<feGaussianBlur stdDeviation="9"/>
<feColorMatrix type="matrix" values="0 0 0 0 0.129412 0 0 0 0 0.180392 0 0 0 0 0.341176 0 0 0 0.2 0"/>
<feBlend mode="normal" in2="BackgroundImageFix" result="effect1_dropShadow_44_64"/>
<feBlend mode="normal" in="SourceGraphic" in2="effect1_dropShadow_44_64" result="shape"/>
</filter>
<filter id="filter4_d_44_64" x="17.8506" y="155.664" width="66.2979" height="66.298" filterUnits="userSpaceOnUse" color-interpolation-filters="sRGB">
<feFlood flood-opacity="0" result="BackgroundImageFix"/>
<feColorMatrix in="SourceAlpha" type="matrix" values="0 0 0 0 0 0 0 0 0 0 0 0 0 0 0 0 0 0 127 0" result="hardAlpha"/>
<feOffset dx="7" dy="11"/>
<feGaussianBlur stdDeviation="9"/>
<feColorMatrix type="matrix" values="0 0 0 0 0.129412 0 0 0 0 0.180392 0 0 0 0 0.341176 0 0 0 0.2 0"/>
<feBlend mode="normal" in2="BackgroundImageFix" result="effect1_dropShadow_44_64"/>
<feBlend mode="normal" in="SourceGraphic" in2="effect1_dropShadow_44_64" result="shape"/>
</filter>
<filter id="filter5_d_44_64" x="0" y="89.3264" width="94.5508" height="93.6298" filterUnits="userSpaceOnUse" color-interpolation-filters="sRGB">
<feFlood flood-opacity="0" result="BackgroundImageFix"/>
<feColorMatrix in="SourceAlpha" type="matrix" values="0 0 0 0 0 0 0 0 0 0 0 0 0 0 0 0 0 0 127 0" result="hardAlpha"/>
<feOffset dx="7" dy="11"/>
<feGaussianBlur stdDeviation="9"/>
<feColorMatrix type="matrix" values="0 0 0 0 0.129412 0 0 0 0 0.180392 0 0 0 0 0.341176 0 0 0 0.2 0"/>
<feBlend mode="normal" in2="BackgroundImageFix" result="effect1_dropShadow_44_64"/>
<feBlend mode="normal" in="SourceGraphic" in2="effect1_dropShadow_44_64" result="shape"/>
</filter>
<linearGradient id="paint0_linear_44_64" x1="188.707" y1="53.0978" x2="204.655" y2="109.892" gradientUnits="userSpaceOnUse">
<stop stop-color="#FFF900"/>
<stop offset="1" stop-color="#FF7C00"/>
</linearGradient>
<linearGradient id="paint1_linear_44_64" x1="66.6552" y1="32.9073" x2="151.067" y2="86.4536" gradientUnits="userSpaceOnUse">
<stop stop-color="#FFF900"/>
<stop offset="1" stop-color="#FF7C00"/>
</linearGradient>
<linearGradient id="paint2_linear_44_64" x1="31.8835" y1="66.2105" x2="53.4792" y2="78.7896" gradientUnits="userSpaceOnUse">
<stop stop-color="#FFF900"/>
<stop offset="1" stop-color="#FF7C00"/>
</linearGradient>
<linearGradient id="paint3_linear_44_64" x1="95.4171" y1="126.784" x2="137.849" y2="169.667" gradientUnits="userSpaceOnUse">
<stop stop-color="#FFF900"/>
<stop offset="1" stop-color="#FF7C00"/>
</linearGradient>
<radialGradient id="paint4_radial_44_64" cx="0" cy="0" r="1" gradientUnits="userSpaceOnUse" gradientTransform="translate(43.9978 177.812) rotate(12.598) scale(15.1484)">
<stop stop-color="#FF814E"/>
<stop offset="1" stop-color="#C31F28"/>
</radialGradient>
<linearGradient id="paint5_linear_44_64" x1="15.2577" y1="111.607" x2="66.0997" y2="138.759" gradientUnits="userSpaceOnUse">
<stop stop-color="#FFF900"/>
<stop offset="1" stop-color="#FF7C00"/>
</linearGradient>
</defs>
</svg>
