<svg width="225" height="198" viewBox="0 0 225 198" fill="none" xmlns="http://www.w3.org/2000/svg">
<g clip-path="url(#clip0_44_64)">
<g filter="url(#filter0_d_44_64)">
<path d="M223.158 91.7463C228.815 76.4712 221.017 59.5029 205.742 53.8465C190.467 48.19 173.499 55.9874 167.843 71.2624C162.186 86.5374 169.983 103.506 185.258 109.162C200.533 114.819 217.502 107.021 223.158 91.7463Z" fill="url(#paint0_linear_44_64)"/>
<path d="M215.648 86.9221C215.843 87.2768 216.358 87.2902 216.559 86.9354C216.559 86.9354 216.559 86.9354 216.559 86.9288C217.75 84.8068 216.994 82.1292 214.872 80.9377C212.75 79.7462 210.066 80.5026 208.881 82.6179C208.881 82.6179 208.881 82.6179 208.881 82.6246C208.68 82.9794 208.961 83.4145 209.363 83.3944C210.595 83.3408 211.853 83.622 213.004 84.2646C214.156 84.9139 215.046 85.8376 215.642 86.9154L215.648 86.9221Z" fill="#1F1F40"/>
<path d="M187.307 71.0107C187.501 71.3654 188.016 71.3788 188.217 71.0241C188.217 71.0241 188.217 71.0241 188.217 71.0174C189.409 68.8954 188.652 66.2178 186.53 65.0263C184.408 63.8348 181.731 64.5912 180.539 66.7065C180.539 66.7065 180.539 66.7065 180.539 66.7132C180.338 67.068 180.619 67.5031 181.021 67.483C182.253 67.4294 183.511 67.7039 184.663 68.3532C185.814 69.0025 186.704 69.933 187.3 71.0107H187.307Z" fill="#1F1F40"/>
<path d="M186.543 76.58C185.097 75.1408 182.647 75.4286 181.643 77.2025L181.623 77.2427C177.373 84.8135 179.541 94.0979 186.456 97.9804C193.378 101.863 202.428 98.8774 206.678 91.3066L206.699 91.2664C207.689 89.4858 206.658 87.2501 204.677 86.7614C201.591 85.9983 198.278 84.6528 194.978 82.7986C191.677 80.9444 188.799 78.8158 186.543 76.58Z" fill="#1F1F40"/>
<path d="M186.463 97.9804C188.933 99.366 191.664 99.8614 194.362 99.6003C194.362 99.6003 192.976 96.7688 188.538 94.2787C183.685 91.3802 180.961 92.0764 180.961 92.0764C182.146 94.5129 183.993 96.5947 186.463 97.9737V97.9804Z" fill="#FF2936"/>
<path d="M221.385 95.2225C221.753 96.6148 221.74 98.0138 221.084 99.3325C220.461 100.598 219.082 101.575 217.69 101.381C216.438 101.207 215.447 100.143 215.066 98.9376C214.457 96.9763 215.193 94.5464 215.983 92.7324C216.632 91.2463 216.786 89.9142 216.572 88.4215C216.518 88.0801 216.94 87.886 217.161 88.1537C218.768 90.1351 220.715 92.6654 221.385 95.2225Z" fill="#61C0EB"/>
</g>
</g>
<g clip-path="url(#clip1_44_64)">
<g filter="url(#filter1_d_44_64)">
<path d="M132.418 103.094C156.395 89.4279 164.754 58.9118 151.088 34.9343C137.422 10.9568 106.906 2.59773 82.9287 16.2638C58.9513 29.9299 50.5922 60.446 64.2583 84.4235C77.9243 108.401 108.44 116.76 132.418 103.094Z" fill="url(#paint1_linear_44_64)"/>
<path d="M130.141 66.519C135.296 72.4649 129.814 90.9986 109.997 93.4427C90.1886 95.8845 84.9758 75.3181 87.8389 70.6979C91.7548 64.3912 102.311 69.4188 109.563 68.3454C116.806 67.2743 125.07 60.6684 130.141 66.519Z" fill="#1F1F40"/>
<path d="M102.856 76.6757C98.943 80.1215 96.2974 84.9728 95.3899 90.0883C98.9446 92.6819 103.743 94.2097 109.994 93.4328C124.186 91.688 131.025 81.6802 131.868 73.9574C130.053 72.9332 128.122 72.1319 126.11 71.5665C118.141 69.3489 109.063 71.2038 102.856 76.6757Z" fill="#FF2936"/>
<path d="M93.1064 24.7587C90.3327 24.405 87.6143 25.8734 85.4503 27.6427C80.8342 31.4218 80.4551 39.3623 80.4551 39.3623C80.4551 39.3623 77.9484 35.4771 76.3532 33.8131C73.8329 31.1642 69.7539 30.1181 66.2737 31.2387C62.7935 32.3593 60.0831 35.5774 59.576 39.1938C58.8387 44.468 62.4318 49.3642 66.4068 52.9105C69.3857 55.5708 79.6916 62.2607 83.2331 64.1008C90.0237 58.2287 97.8419 47.546 99.421 38.7153C99.9303 35.8964 100.115 32.9222 99.1685 30.2217C98.2223 27.5212 95.9361 25.1309 93.0889 24.7729L93.1064 24.7587Z" fill="#FF2936"/>
<path d="M93.106 24.7586C92.0713 24.6273 91.0524 24.7516 90.059 25.0361C92.2023 26.4635 93.7591 28.8823 94.4791 31.4054C96.5341 38.5526 93.1363 46.6192 87.1784 51.0716C81.4857 55.3196 73.2555 56.4252 67.1555 52.7843C65.7918 51.9701 64.5804 50.956 63.4424 49.853C64.3599 50.9432 65.3673 51.9718 66.4141 52.8983C69.3929 55.5586 79.6988 62.2485 83.2403 64.0886C90.031 58.2165 97.8492 47.5339 99.4282 38.7031C99.9375 35.8842 100.122 32.91 99.1757 30.2095C98.2296 27.509 95.9433 25.1187 93.0961 24.7608L93.106 24.7586Z" fill="#BF101F"/>
<path d="M143.557 22.7674C141.049 21.515 138.008 22.0086 135.384 22.969C129.78 25.0207 126.807 32.3912 126.807 32.3912C126.807 32.3912 125.709 27.9006 124.762 25.8013C123.25 22.4708 119.745 20.1459 116.089 20.0623C112.433 19.9787 108.819 22.1241 107.143 25.3801C104.711 30.1215 106.498 35.9296 109.094 40.5826C111.036 44.0759 118.575 53.7788 121.307 56.6808C129.656 53.3724 140.544 45.8479 144.949 38.0223C146.349 35.5224 147.506 32.7761 147.499 29.9174C147.489 27.0488 146.114 24.0505 143.557 22.7674Z" fill="#FF2936"/>
<path d="M143.557 22.7674C142.624 22.3026 141.621 22.0813 140.594 22.0312C142.15 24.0771 142.819 26.8811 142.68 29.5031C142.269 36.9324 136.408 43.4361 129.322 45.6742C122.548 47.822 114.412 46.1498 109.856 40.7022C108.838 39.4893 108.026 38.1269 107.305 36.7128C107.811 38.0504 108.432 39.3418 109.108 40.5584C111.051 44.0517 118.59 53.7547 121.322 56.6566C129.671 53.3482 140.559 45.8237 144.964 37.9981C146.363 35.4983 147.521 32.7519 147.514 29.8932C147.504 27.0246 146.129 24.0264 143.572 22.7433L143.557 22.7674Z" fill="#BF101F"/>
</g>
</g>
<g clip-path="url(#clip2_44_64)">
<g filter="url(#filter2_d_44_64)">
<path d="M41.9808 84.9889C48.8775 84.7228 54.2527 78.9161 53.9865 72.0194C53.7204 65.1226 47.9137 59.7474 41.017 60.0136C34.1202 60.2797 28.7451 66.0864 29.0112 72.9832C29.2774 79.8799 35.084 85.2551 41.9808 84.9889Z" fill="url(#paint2_linear_44_64)"/>
<path d="M37.2319 72.0834C37.3261 72.1078 37.4052 72.0044 37.3626 71.9162C37.0312 71.2351 36.1768 70.8763 35.3193 71.1044C34.4649 71.3294 33.8993 72.0622 33.945 72.8193C33.951 72.9166 34.0696 72.9683 34.1396 72.9014C34.5135 72.5365 35.0061 72.2507 35.5808 72.1017C36.1555 71.9496 36.7241 71.9557 37.2288 72.0865L37.2319 72.0834Z" fill="#1F1F40"/>
<path d="M48.7706 67.5529C49.251 69.3742 48.0773 71.2655 46.1496 71.7733C44.2218 72.2811 42.2698 71.2169 41.7863 69.3955C41.3059 67.5712 42.4796 65.6829 44.4073 65.1751C46.3351 64.6674 48.2902 65.7316 48.7706 67.5529Z" fill="white"/>
<path d="M46.6366 68.1154C46.8221 68.8239 46.369 69.5567 45.618 69.7543C44.87 69.952 44.1129 69.5384 43.9243 68.83C43.7389 68.1215 44.1919 67.3887 44.9399 67.1911C45.6879 66.9934 46.4481 67.407 46.6335 68.1154H46.6366Z" fill="#1F1F40"/>
<path d="M36.6141 75.9298C36.085 75.8295 35.7445 76.4984 36.1337 76.8694C37.9337 78.5782 40.4696 79.3566 42.9477 78.7029C45.4289 78.0491 47.2472 76.1214 47.9708 73.7467C48.1289 73.2328 47.5026 72.8193 47.0921 73.1659C45.7633 74.2909 44.0819 75.1849 42.1541 75.6927C40.2264 76.2004 38.3229 76.2521 36.6141 75.9298Z" fill="#1F1F40"/>
<path d="M42.3093 76.2795C41.3819 76.5258 40.4606 76.6596 39.5605 76.7021L40.5001 80.2597L40.6552 80.8465L40.8072 81.4182C41.1964 82.8929 42.7106 83.7746 44.1853 83.3854C45.66 82.9962 46.5418 81.482 46.1526 80.0073L46.0006 79.4357L45.8455 78.8488L44.906 75.2913C44.1032 75.6987 43.2336 76.0332 42.3062 76.2795H42.3093Z" fill="#FF2936"/>
</g>
</g>
<g clip-path="url(#clip3_44_64)">
<g filter="url(#filter3_d_44_64)">
<path d="M121.933 177.36C138.318 173.94 148.799 158.026 145.343 141.814C141.887 125.602 125.803 115.232 109.419 118.651C93.0343 122.071 82.5534 137.985 86.0092 154.197C89.4649 170.409 105.549 180.779 121.933 177.36Z" fill="url(#paint3_linear_44_64)"/>
<path d="M105.179 139.687C103.517 139.325 101.8 140.066 100.403 141.015C97.4164 143.039 96.768 147.765 96.768 147.765C96.768 147.765 95.4529 145.307 94.5853 144.232C93.2063 142.515 90.7954 141.684 88.631 142.172C86.4666 142.66 84.6584 144.44 84.1652 146.581C83.4438 149.699 85.3616 152.816 87.5808 155.139C89.2429 156.883 95.1241 161.419 97.1698 162.702C101.581 159.539 106.868 153.557 108.284 148.362C108.741 146.699 109.005 144.937 108.576 143.265C108.147 141.602 106.887 140.057 105.188 139.687H105.179Z" fill="#FF2936"/>
<path d="M105.179 139.687C104.558 139.551 103.937 139.569 103.325 139.696C104.539 140.663 105.361 142.19 105.663 143.735C106.53 148.117 104.055 152.771 100.22 155.12C96.5575 157.37 91.5256 157.596 88.0278 155.102C87.2516 154.551 86.5667 153.873 85.9365 153.16C86.4297 153.864 86.9959 154.524 87.5712 155.13C89.2333 156.873 95.1146 161.41 97.1603 162.693C101.571 159.53 106.859 153.548 108.274 148.352C108.731 146.69 108.996 144.928 108.567 143.256C108.137 141.593 106.877 140.048 105.179 139.678V139.687Z" fill="#BF101F"/>
<path d="M119.754 150.566C119.279 149.798 118.311 148.858 116.814 148.19C116.056 147.864 115.115 147.584 113.982 147.639C112.859 147.693 111.517 148.217 110.622 149.328C110.165 149.88 109.809 150.63 109.745 151.488C109.709 152.627 110.183 153.358 110.567 153.919C110.704 154.099 110.85 154.253 110.987 154.407C110.759 154.533 110.521 154.66 110.284 154.813C109.992 155.021 109.681 155.265 109.38 155.636C109.042 156.051 108.932 156.34 108.768 156.702C108.503 157.407 108.412 158.12 108.476 158.807C108.558 160.163 109.444 161.581 110.667 162.123C111.855 162.675 112.868 162.584 113.645 162.512C115.133 162.313 116.357 162.024 117.179 161.545C117.992 161.075 118.238 160.569 118.101 160.398C117.955 160.199 117.508 160.289 116.786 160.298C116.083 160.325 114.978 160.244 113.599 160.136C112.96 160.081 112.339 159.937 112.019 159.684C111.727 159.458 111.59 159.142 111.59 158.626C111.59 158.383 111.663 158.13 111.763 157.913C111.937 157.642 111.846 157.741 112.147 157.524C112.686 157.19 113.654 156.846 114.558 156.63L114.631 156.611C114.631 156.611 116.649 156.431 116.85 155.491C117.06 154.551 115.151 153.539 115.151 153.539C114.421 153.087 113.617 152.437 113.215 151.94C113.115 151.822 113.033 151.705 113.005 151.642C112.969 151.596 112.987 151.596 112.978 151.587C112.978 151.587 112.978 151.587 112.96 151.587C112.96 151.569 112.96 151.56 112.96 151.542C112.96 151.506 112.969 151.47 112.978 151.425C112.996 151.343 113.033 151.253 113.097 151.163C113.206 150.982 113.389 150.801 113.59 150.666C113.791 150.53 114.001 150.44 114.284 150.377C114.823 150.25 115.444 150.295 116.028 150.404C118.485 150.901 119.608 152.193 120.019 151.958C120.211 151.849 120.211 151.316 119.736 150.539L119.754 150.566ZM112.603 151.642H112.594C112.594 151.642 112.613 151.642 112.622 151.642C112.622 151.642 112.622 151.642 112.613 151.642H112.603Z" fill="#1F1F40"/>
<path d="M108.411 136.578C108.055 136.741 107.48 136.208 106.612 135.539C105.754 134.861 104.548 134.048 103.105 133.623C101.672 133.208 100.238 133.262 99.1877 133.434C98.1283 133.587 97.3886 133.822 97.1329 133.524C96.8954 133.262 97.2607 132.413 98.4662 131.654C99.6443 130.904 101.717 130.398 103.873 131.03C106.019 131.663 107.471 133.145 108.101 134.337C108.758 135.548 108.731 136.443 108.402 136.578H108.411Z" fill="#1F1F40"/>
<path d="M124.823 138.657C124.549 138.422 124.786 137.563 125.781 136.605C126.749 135.657 128.576 134.672 130.823 134.699C133.078 134.735 134.905 135.828 135.8 136.895C136.722 137.97 136.813 138.892 136.512 139.072C136.183 139.28 135.544 138.837 134.576 138.376C133.626 137.907 132.275 137.428 130.777 137.401C129.27 137.383 127.882 137.798 126.859 138.196C125.827 138.584 125.115 138.919 124.823 138.657Z" fill="#1F1F40"/>
</g>
</g>
<g clip-path="url(#clip4_44_64)">
<g filter="url(#filter4_d_44_64)">
<path d="M54.7209 187.181C59.8945 180.606 58.7585 171.082 52.1836 165.908C45.6088 160.735 36.0849 161.871 30.9114 168.446C25.7379 175.02 26.8739 184.544 33.4487 189.718C40.0235 194.891 49.5474 193.755 54.7209 187.181Z" fill="url(#paint4_radial_44_64)"/>
<path d="M51.9267 177.674C52.5745 174.774 50.801 172.2 48.5207 171.693C46.6012 171.266 44.5982 172.163 43.7074 173.815C43.6048 171.941 42.1742 170.272 40.2548 169.845C37.9727 169.334 35.273 170.906 34.624 173.808C33.6413 178.201 39.2593 184.741 40.8057 185.638C40.8334 185.657 40.8654 185.674 40.8986 185.687C40.95 185.709 40.9954 185.728 41.0299 185.739C41.033 185.74 41.036 185.741 41.0433 185.741C41.0463 185.742 41.0493 185.743 41.0554 185.746C41.0942 185.755 41.1428 185.757 41.197 185.755C41.2323 185.755 41.2658 185.752 41.3023 185.749C43.0818 185.593 50.9488 182.072 51.9297 177.675L51.9267 177.674Z" fill="#FCFCFC"/>
</g>
</g>
<g clip-path="url(#clip5_44_64)">
<g filter="url(#filter5_d_44_64)">
<path d="M60.2379 145.159C71.3228 133.712 71.0358 115.47 59.5969 104.415C48.158 93.3593 29.8989 93.6767 18.8141 105.124C7.72922 116.571 8.01621 134.812 19.4551 145.868C30.894 156.923 49.1531 156.606 60.2379 145.159Z" fill="url(#paint5_linear_44_64)"/>
<path d="M63.2673 106.87C61.9185 106.267 60.2823 106.667 58.7911 107.084C52.2249 108.903 45.6616 110.726 39.0954 112.545L39.1199 113.927C38.0291 113.862 36.8605 113.917 35.6103 114.225C34.6348 114.458 33.7764 114.865 32.9787 115.317L32.4411 114.193C26.2813 115.689 20.1164 117.189 13.9596 118.691C12.565 119.029 11.0478 119.448 10.2147 120.619C9.38155 121.791 9.90213 123.894 11.3303 123.956C11.5875 123.966 11.8561 123.915 12.0969 123.989C12.6295 124.155 12.8087 124.8 12.9204 125.344C13.7328 129.314 15.5908 133.376 19.1192 135.377C23.1465 137.659 28.5328 136.438 31.8592 133.219C36.7979 128.449 34.7458 119.02 34.7458 119.02C35.3409 118.775 35.961 118.55 36.6517 118.398C37.4949 118.183 38.3546 118.053 39.1751 117.96C39.1751 117.96 41.5996 126.734 48.6482 128.993C53.2381 130.46 59.0376 128.458 61.7786 124.401C64.1861 120.846 64.0308 116.324 62.9137 112.412C62.7579 111.874 62.6248 111.214 63.0558 110.796C63.2542 110.604 63.5281 110.516 63.7692 110.373C65.1005 109.584 64.595 107.472 63.2513 106.866L63.2673 106.87Z" fill="#1F1F40"/>
<path d="M13.2962 121.923C13.3648 122.154 12.9744 122.48 12.4093 122.557C11.8442 122.635 11.38 122.436 11.3865 122.195C11.39 121.949 11.7946 121.749 12.2896 121.68C12.7846 121.61 13.2275 121.693 13.2962 121.923Z" fill="white"/>
<path d="M60.543 109.42C60.4814 109.179 60.8246 108.887 61.2872 108.694C61.7499 108.501 62.1976 108.466 62.3225 108.677C62.4473 108.887 62.1515 109.293 61.6306 109.514C61.1046 109.737 60.6096 109.658 60.5459 109.425L60.543 109.42Z" fill="white"/>
<path d="M58.3491 111.16C58.0062 111.086 57.6427 111.091 57.2887 111.193L52.4978 112.616C51.249 116.751 50.0402 120.897 48.8743 125.057C50.0719 125.818 51.4609 126.214 53.0525 126.07C53.9369 125.993 54.8073 125.755 55.6354 125.399C56.4091 121.356 57.1829 117.313 57.9617 113.267C58.0951 112.564 58.2236 111.865 58.3491 111.16Z" fill="#3F3F5B"/>
<path d="M22.6675 120.359C21.0985 123.667 19.6052 127.012 18.1899 130.385C20.0015 132.388 22.3856 133.272 24.6964 133.23C26.1223 128.455 27.4603 123.657 28.7024 118.835L22.6646 120.354L22.6675 120.359Z" fill="#3F3F5B"/>
<path d="M52.3163 137.023C52.573 137.285 52.4105 137.984 51.6834 138.842C51.3154 139.263 50.7931 139.722 50.0881 140.079C49.3891 140.446 48.5157 140.679 47.6075 140.716C46.7174 140.749 45.7953 140.591 45.0647 140.252C44.3219 139.926 43.7581 139.468 43.3814 139.027C42.6191 138.13 42.5346 137.381 42.8223 137.156C43.1212 136.904 43.7402 137.181 44.5462 137.476C45.3692 137.787 46.3207 138.03 47.5053 137.978C48.6858 137.942 49.6799 137.604 50.5389 137.278C51.3877 136.957 52.0478 136.742 52.3163 137.023Z" fill="#1F1F40"/>
</g>
</g>
<defs>
<filter id="filter0_d_44_64" x="154.999" y="45.003" width="95.0029" height="95.0026" filterUnits="userSpaceOnUse" color-interpolation-filters="sRGB">
<feFlood flood-opacity="0" result="BackgroundImageFix"/>
<feColorMatrix in="SourceAlpha" type="matrix" values="0 0 0 0 0 0 0 0 0 0 0 0 0 0 0 0 0 0 127 0" result="hardAlpha"/>
<feOffset dx="7" dy="11"/>
<feGaussianBlur stdDeviation="9"/>
<feColorMatrix type="matrix" values="0 0 0 0 0.129412 0 0 0 0 0.180392 0 0 0 0 0.341176 0 0 0 0.2 0"/>
<feBlend mode="normal" in2="BackgroundImageFix" result="effect1_dropShadow_44_64"/>
<feBlend mode="normal" in="SourceGraphic" in2="effect1_dropShadow_44_64" result="shape"/>
</filter>
<filter id="filter1_d_44_64" x="46.6934" y="2.69864" width="135.96" height="135.96" filterUnits="userSpaceOnUse" color-interpolation-filters="sRGB">
<feFlood flood-opacity="0" result="BackgroundImageFix"/>
<feColorMatrix in="SourceAlpha" type="matrix" values="0 0 0 0 0 0 0 0 0 0 0 0 0 0 0 0 0 0 127 0" result="hardAlpha"/>
<feOffset dx="7" dy="11"/>
<feGaussianBlur stdDeviation="9"/>
<feColorMatrix type="matrix" values="0 0 0 0 0.129412 0 0 0 0 0.180392 0 0 0 0 0.341176 0 0 0 0.2 0"/>
<feBlend mode="normal" in2="BackgroundImageFix" result="effect1_dropShadow_44_64"/>
<feBlend mode="normal" in="SourceGraphic" in2="effect1_dropShadow_44_64" result="shape"/>
</filter>
<filter id="filter2_d_44_64" x="18.002" y="53.0041" width="60.9941" height="60.9943" filterUnits="userSpaceOnUse" color-interpolation-filters="sRGB">
<feFlood flood-opacity="0" result="BackgroundImageFix"/>
<feColorMatrix in="SourceAlpha" type="matrix" values="0 0 0 0 0 0 0 0 0 0 0 0 0 0 0 0 0 0 127 0" result="hardAlpha"/>
<feOffset dx="7" dy="11"/>
<feGaussianBlur stdDeviation="9"/>
<feColorMatrix type="matrix" values="0 0 0 0 0.129412 0 0 0 0 0.180392 0 0 0 0 0.341176 0 0 0 0.2 0"/>
<feBlend mode="normal" in2="BackgroundImageFix" result="effect1_dropShadow_44_64"/>
<feBlend mode="normal" in="SourceGraphic" in2="effect1_dropShadow_44_64" result="shape"/>
</filter>
<filter id="filter3_d_44_64" x="73.0107" y="110.999" width="97.9912" height="96.0122" filterUnits="userSpaceOnUse" color-interpolation-filters="sRGB">
<feFlood flood-opacity="0" result="BackgroundImageFix"/>
<feColorMatrix in="SourceAlpha" type="matrix" values="0 0 0 0 0 0 0 0 0 0 0 0 0 0 0 0 0 0 127 0" result="hardAlpha"/>
<feOffset dx="7" dy="11"/>
<feGaussianBlur stdDeviation="9"/>
<feColorMatrix type="matrix" values="0 0 0 0 0.129412 0 0 0 0 0.180392 0 0 0 0 0.341176 0 0 0 0.2 0"/>
<feBlend mode="normal" in2="BackgroundImageFix" result="effect1_dropShadow_44_64"/>
<feBlend mode="normal" in="SourceGraphic" in2="effect1_dropShadow_44_64" result="shape"/>
</filter>
<filter id="filter4_d_44_64" x="16.667" y="155.664" width="66.2979" height="66.298" filterUnits="userSpaceOnUse" color-interpolation-filters="sRGB">
<feFlood flood-opacity="0" result="BackgroundImageFix"/>
<feColorMatrix in="SourceAlpha" type="matrix" values="0 0 0 0 0 0 0 0 0 0 0 0 0 0 0 0 0 0 127 0" result="hardAlpha"/>
<feOffset dx="7" dy="11"/>
<feGaussianBlur stdDeviation="9"/>
<feColorMatrix type="matrix" values="0 0 0 0 0.129412 0 0 0 0 0.180392 0 0 0 0 0.341176 0 0 0 0.2 0"/>
<feBlend mode="normal" in2="BackgroundImageFix" result="effect1_dropShadow_44_64"/>
<feBlend mode="normal" in="SourceGraphic" in2="effect1_dropShadow_44_64" result="shape"/>
</filter>
<filter id="filter5_d_44_64" x="-1.18359" y="89.3264" width="94.5508" height="93.6298" filterUnits="userSpaceOnUse" color-interpolation-filters="sRGB">
<feFlood flood-opacity="0" result="BackgroundImageFix"/>
<feColorMatrix in="SourceAlpha" type="matrix" values="0 0 0 0 0 0 0 0 0 0 0 0 0 0 0 0 0 0 127 0" result="hardAlpha"/>
<feOffset dx="7" dy="11"/>
<feGaussianBlur stdDeviation="9"/>
<feColorMatrix type="matrix" values="0 0 0 0 0.129412 0 0 0 0 0.180392 0 0 0 0 0.341176 0 0 0 0.2 0"/>
<feBlend mode="normal" in2="BackgroundImageFix" result="effect1_dropShadow_44_64"/>
<feBlend mode="normal" in="SourceGraphic" in2="effect1_dropShadow_44_64" result="shape"/>
</filter>
<linearGradient id="paint0_linear_44_64" x1="187.523" y1="53.0977" x2="203.472" y2="109.892" gradientUnits="userSpaceOnUse">
<stop stop-color="#FFF900"/>
<stop offset="1" stop-color="#FF7C00"/>
</linearGradient>
<linearGradient id="paint1_linear_44_64" x1="65.4716" y1="32.9072" x2="149.883" y2="86.4536" gradientUnits="userSpaceOnUse">
<stop stop-color="#FFF900"/>
<stop offset="1" stop-color="#FF7C00"/>
</linearGradient>
<linearGradient id="paint2_linear_44_64" x1="30.7" y1="66.2105" x2="52.2956" y2="78.7896" gradientUnits="userSpaceOnUse">
<stop stop-color="#FFF900"/>
<stop offset="1" stop-color="#FF7C00"/>
</linearGradient>
<linearGradient id="paint3_linear_44_64" x1="94.2336" y1="126.783" x2="136.665" y2="169.667" gradientUnits="userSpaceOnUse">
<stop stop-color="#FFF900"/>
<stop offset="1" stop-color="#FF7C00"/>
</linearGradient>
<radialGradient id="paint4_radial_44_64" cx="0" cy="0" r="1" gradientUnits="userSpaceOnUse" gradientTransform="translate(42.8142 177.812) rotate(12.598) scale(15.1484)">
<stop stop-color="#FF814E"/>
<stop offset="1" stop-color="#C31F28"/>
</radialGradient>
<linearGradient id="paint5_linear_44_64" x1="14.0741" y1="111.607" x2="64.9161" y2="138.759" gradientUnits="userSpaceOnUse">
<stop stop-color="#FFF900"/>
<stop offset="1" stop-color="#FF7C00"/>
</linearGradient>
<clipPath id="clip0_44_64">
<rect width="59" height="59" fill="white" transform="translate(166 52)"/>
</clipPath>
<clipPath id="clip1_44_64">
<rect width="99.9534" height="99.9534" fill="white" transform="translate(48 21.8231) rotate(-12.6112)"/>
</clipPath>
<clipPath id="clip2_44_64">
<rect width="25" height="25" fill="white" transform="translate(29 60)"/>
</clipPath>
<clipPath id="clip3_44_64">
<rect width="62" height="60" fill="white" transform="translate(84 118)"/>
</clipPath>
<clipPath id="clip4_44_64">
<rect width="30.3" height="30.3" fill="white" transform="translate(34.6582 158) rotate(22.628)"/>
</clipPath>
<clipPath id="clip5_44_64">
<rect width="58.9904" height="57.6185" fill="white" transform="translate(0 115.08) rotate(-30.6586)"/>
</clipPath>
</defs>
</svg>
